<svg width="51" height="17" viewBox="0 0 51 17" fill="none">
<path d="M4.03731 16.7052L0 0.294797H3.96208L6.29419 11.6691L8.75168 0.294797H12.8642L15.3468 11.6691L17.6789 0.294797H21.641L17.6037 16.7052H13.3657L10.8079 5.15896L8.27523 16.7052H4.03731Z" fill="#404040"/>
<path d="M23.9684 16.7052L30.7641 3.36561H22.2632V0.294797H34.8014V3.36561L28.3568 16.7052H23.9684Z" fill="#404040"/>
<path d="M43.8031 17C42.2483 17 40.936 16.6561 39.8661 15.9682C38.7961 15.264 37.9853 14.2731 37.4336 12.9957C36.8987 11.7182 36.6312 10.2115 36.6312 8.47543C36.6312 5.83863 37.2414 3.76686 38.4618 2.26012C39.6822 0.753372 41.4626 0 43.8031 0C46.1602 0 47.949 0.753372 49.1694 2.26012C50.3898 3.76686 51 5.83863 51 8.47543C51 10.2115 50.7242 11.7182 50.1725 12.9957C49.6375 14.2731 48.8351 15.264 47.7651 15.9682C46.6952 16.6561 45.3745 17 43.8031 17ZM46.9125 10.6618C47.0128 10.0231 47.063 9.3025 47.063 8.5C47.063 6.50193 46.7621 5.0525 46.1602 4.15173C45.5751 3.23458 44.7894 2.77601 43.8031 2.77601C43.0508 2.77601 42.4071 3.04624 41.8722 3.5867L46.9125 10.6618ZM43.8031 14.224C44.6389 14.224 45.316 13.9128 45.8343 13.2905L40.7437 6.11705C40.6769 6.46098 40.6267 6.82948 40.5933 7.22254C40.5598 7.59923 40.5431 8.01686 40.5431 8.47543C40.5431 10.4571 40.844 11.9147 41.4459 12.8483C42.0477 13.7654 42.8334 14.224 43.8031 14.224Z" fill="#404040"/>
</svg>
